<mxfile host="Electron" agent="Mozilla/5.0 (Windows NT 10.0; Win64; x64) AppleWebKit/537.36 (KHTML, like Gecko) draw.io/24.7.17 Chrome/128.0.6613.36 Electron/32.0.1 Safari/537.36" version="24.7.17">
  <diagram name="Pagina-1" id="gKJ_CikLVkiAsrF-4bo0">
    <mxGraphModel dx="811" dy="470" grid="1" gridSize="10" guides="1" tooltips="1" connect="1" arrows="1" fold="1" page="1" pageScale="1" pageWidth="827" pageHeight="1169" math="0" shadow="0">
      <root>
        <mxCell id="0" />
        <mxCell id="1" parent="0" />
        <mxCell id="qI2jQfpPO7qPhsGEWA5x-5" style="edgeStyle=orthogonalEdgeStyle;rounded=0;orthogonalLoop=1;jettySize=auto;html=1;entryX=0.5;entryY=0;entryDx=0;entryDy=0;" edge="1" parent="1" source="qI2jQfpPO7qPhsGEWA5x-1" target="qI2jQfpPO7qPhsGEWA5x-3">
          <mxGeometry relative="1" as="geometry" />
        </mxCell>
        <mxCell id="qI2jQfpPO7qPhsGEWA5x-1" value="&amp;nbsp; &amp;nbsp;fase 1 : lettura" style="rounded=0;whiteSpace=wrap;html=1;fontFamily=Times New Roman;fontSize=17;fillColor=#fff2cc;gradientColor=#ffd966;strokeColor=none;align=left;verticalAlign=middle;" vertex="1" parent="1">
          <mxGeometry x="320" y="330" width="160" height="30" as="geometry" />
        </mxCell>
        <mxCell id="qI2jQfpPO7qPhsGEWA5x-6" style="edgeStyle=orthogonalEdgeStyle;rounded=0;orthogonalLoop=1;jettySize=auto;html=1;entryX=0.5;entryY=0;entryDx=0;entryDy=0;" edge="1" parent="1" source="qI2jQfpPO7qPhsGEWA5x-3" target="qI2jQfpPO7qPhsGEWA5x-4">
          <mxGeometry relative="1" as="geometry" />
        </mxCell>
        <mxCell id="qI2jQfpPO7qPhsGEWA5x-3" value="&amp;nbsp; &amp;nbsp;fase 2 : elaborazione" style="rounded=0;whiteSpace=wrap;html=1;fontFamily=Times New Roman;fontSize=17;fillColor=#fff2cc;gradientColor=#ffd966;strokeColor=none;align=left;verticalAlign=middle;" vertex="1" parent="1">
          <mxGeometry x="320" y="390" width="160" height="30" as="geometry" />
        </mxCell>
        <mxCell id="qI2jQfpPO7qPhsGEWA5x-7" style="edgeStyle=orthogonalEdgeStyle;rounded=0;orthogonalLoop=1;jettySize=auto;html=1;entryX=0.5;entryY=0;entryDx=0;entryDy=0;" edge="1" parent="1" source="qI2jQfpPO7qPhsGEWA5x-4" target="qI2jQfpPO7qPhsGEWA5x-1">
          <mxGeometry relative="1" as="geometry">
            <Array as="points">
              <mxPoint x="400" y="500" />
              <mxPoint x="500" y="500" />
              <mxPoint x="500" y="310" />
              <mxPoint x="400" y="310" />
            </Array>
          </mxGeometry>
        </mxCell>
        <mxCell id="qI2jQfpPO7qPhsGEWA5x-4" value="&amp;nbsp; &amp;nbsp;fase 3 : scrittura" style="rounded=0;whiteSpace=wrap;html=1;fontFamily=Times New Roman;fontSize=17;fillColor=#fff2cc;gradientColor=#ffd966;strokeColor=none;align=left;verticalAlign=middle;" vertex="1" parent="1">
          <mxGeometry x="320" y="450" width="160" height="30" as="geometry" />
        </mxCell>
        <mxCell id="qI2jQfpPO7qPhsGEWA5x-8" value="ciclo di esecuzione" style="text;html=1;align=center;verticalAlign=middle;whiteSpace=wrap;rounded=0;fontFamily=Times New Roman;fontSize=21;" vertex="1" parent="1">
          <mxGeometry x="550" y="390" width="180" height="30" as="geometry" />
        </mxCell>
      </root>
    </mxGraphModel>
  </diagram>
</mxfile>
